/* XPM */
static char *xpm_[] = {
/* columns rows colors chars-per-pixel */
"32 32 20 1 ",
"  c #6B4918",
". c #A59242",
"X c #8C6118",
"o c #BDA252",
"O c #8C7108",
"+ c #040204",
"@ c #842A0C",
"# c #D4821C",
"$ c #FCD22C",
"% c #FCEA3C",
"& c #FCF29C",
"* c #F4AA1C",
"= c #D4F2FC",
"- c #CCEA0C",
"; c #FCC204",
": c #AC4A0C",
"> c #2452CC",
", c #FC7214",
"< c #FC0AA4",
"1 c #DC729C",
/* pixels */
"  ...XXXX.oo.X    ...XXXX.oo.X  ",
"X.oo..XO.oo.o.XXX.oo..XO.oo.o.XX",
"oo.... Xooo++++++++++. Xooo....X",
"ooo... X.++@#$%&&%$#@++X....... ",
"o..... ++@*$%%%%%%%%$*@++oo.oo. ",
"oo... +@#%%%$*####*$%%%#@+oo... ",
".... +@*%%$$====----$$%%*@+...  ",
"X.. +@*%%$=====-----%%%%%*@+   X",
"O   +#$$$=====-----%%%%%$$#+...X",
"XOO+@$$$====++---++%%%%;$$$@+oo.",
".XO+#$$=====&+---&+%%%;;;$$#+...",
"..+@*$$====-@+--%@+%%;;;;$$*@+..",
"..+:$$====-->+-%%>+%;;;;;*$$:+oo",
"..+#$$===---++%%%++;;;;;*,$$#+..",
"..+*$$==<<<--%%%%%;;<<<*,,$$*+oo",
". +*$$=-<<<-%+%%%+;;<<<,,,$$*+..",
"  +*$$-----%%%+++;;;;*,,,,$$*+  ",
"X.+#$$----%%%%%;;;;;*,,,,1$$#+XX",
"oo+#**---%%%%%;;;;;*,,,,11**#+.X",
"oo+:**--%%%%%;;;;;*,,,,111**:+. ",
"o.+@##*%%%%%;;;;;*,,,,111*##@+. ",
"oo.+:##%%%%;;;;;*,,,,1111##:+.. ",
"...+@##*%%;;;;;*,,,,1111*##@+.  ",
"X.. +:##*;;;;;*,,,,1111*##:+   X",
"O   +@:##*;;;*,,,,1111*##:@+...X",
"XOOOO+@:##$$*,,,,11*$$##:@+ ooo.",
".XOO.o+@::##$$$$$$$$##::@+. ....",
"..XOooo++@::########::@++.. oo..",
".. X.o...++@@@::::@@@++...  oooo",
".. X.oo..  ++++++++++oo..  X....",
".. XX...  XO .oo.. XX...  XO .oo",
".  XO    XOOX ...  XO    XOOX .."
};
