/* XPM */
static char *result[] = {
/* columns rows colors chars-per-pixel */
"40 40 112 2 ",
"   c #2E466A",
".  c #2E486C",
"X  c #314A6D",
"o  c #2C4D74",
"O  c #344D70",
"+  c #384F73",
"@  c #2F5072",
"#  c #345274",
"$  c #3B5375",
"%  c #3E5876",
"&  c #3E5678",
"*  c #375B7A",
"=  c #3E5879",
"-  c #47586F",
";  c #425777",
":  c #465870",
">  c #405779",
",  c #445C7B",
"<  c #4D5E79",
"1  c #5D676F",
"2  c #4A617D",
"3  c #4F687F",
"4  c #59667D",
"5  c #616B72",
"6  c #6D7271",
"7  c #7D7F77",
"8  c #918A74",
"9  c #999074",
"0  c #326284",
"q  c #3B768F",
"w  c #3A7890",
"e  c #4C6582",
"r  c #4D6985",
"t  c #556C83",
"y  c #536C88",
"u  c #586F89",
"i  c #5E7686",
"p  c #56748C",
"a  c #5C728C",
"s  c #5E7A91",
"d  c #6D7486",
"f  c #687F8C",
"g  c #627691",
"h  c #657B93",
"j  c #6A7B95",
"k  c #6D7F98",
"l  c #3E8096",
"z  c #6C838E",
"x  c #668196",
"c  c #688195",
"v  c #6F829A",
"b  c #6A889D",
"n  c #758B92",
"m  c #72839C",
"M  c #718B9C",
"N  c #7B9296",
"B  c #6F8EA1",
"V  c #7A87A3",
"C  c #708DA1",
"Z  c #7B8BA2",
"A  c #7791A1",
"S  c #7D96A2",
"D  c #7F99A6",
"F  c #7B9AAA",
"G  c #46AAB6",
"H  c #46ADB8",
"J  c #4BBCC3",
"K  c #4DC5CA",
"L  c #4EC8CC",
"P  c #50D0D2",
"I  c #819799",
"U  c #849AA0",
"Y  c #889FA1",
"T  c #8594A9",
"R  c #8896AC",
"E  c #839DAA",
"W  c #8AA1A4",
"Q  c #87A0AC",
"!  c #8BA3AC",
"~  c #97A4B6",
"^  c #99A5B7",
"/  c #96AEB3",
"(  c #98AEB3",
")  c #9BA7B8",
"_  c #9EAABB",
"`  c #9BB4BB",
"'  c #9FB8BD",
"]  c #A2ADBD",
"[  c #A1B9BE",
"{  c #A7B1C1",
"}  c #ABB5C4",
"|  c #A4BDC1",
" . c #AEB8C6",
".. c #B3BCCA",
"X. c #B3C7C9",
"o. c #BAC2CE",
"O. c #B6CACD",
"+. c #BFC7D2",
"@. c #C6CDD7",
"#. c #CBD2DA",
"$. c #D1D6DE",
"%. c #D4D9E1",
"&. c #DBDFE6",
"*. c #DCE0E6",
"=. c #E2E6EA",
"-. c #E7EAEE",
";. c #E8EBEF",
":. c #EBEEF1",
">. c #EEF0F3",
",. c #F2F3F5",
"<. c #F7F8FA",
"1. c #FFFFFF",
/* pixels */
"1.1.1.1.1.1.1.1.1.1.1.1.1.1.1.1.1.1.1.1.1.1.1.1.1.1.1.1.1.1.1.1.1.1.1.1.1.1.1.1.",
"1.1.1.1.1.1.1.1.1.1.1.1.1.1.1.1.1.} e X O y  .1.1.1.1.1.1.1.1.1.1.1.1.1.1.1.1.1.",
"1.1.1.1.1.1.1.1.1.1.1.1.1.1.1.<.t 2 z ( [ Q r a ,.1.1.1.1.1.1.1.1.1.1.1.1.1.1.1.",
"1.1.1.1.1.1.1.1.1.1.1.1.1.1.1.a 3 I ` | | ' X.s j 1.1.1.1.1.1.1.1.1.1.1.1.1.1.1.",
"1.1.1.1.1.1.1.1.1.1.1.1.1.1.#.% I W ` M A ` | | , #.1.1.1.1.1.1.1.1.1.1.1.1.1.1.",
"1.1.1.1.1.1.1.1.1.1.1.1.1.1.Z i I U # l l # E | M T 1.1.1.1.1.1.1.1.1.1.1.1.1.1.",
"1.1.1.1.1.1.1.1.1.1.1.1.1.1.a z N $ J H H J # | E j 1.1.1.1.1.1.1.1.1.1.1.1.1.1.",
"1.1.1.1.1.1.1.1.1.1.1.1.1.1.u z n 0 K o o K * / Q g 1.1.1.1.1.1.1.1.1.1.1.1.1.1.",
"1.1.1.1.1.1.1.1.1.1.1.1.1.1.u z N @ P * 0 P @ ' Q g 1.1.1.1.1.1.1.1.1.1.1.1.1.1.",
"1.1.1.1.1.1.1.1.1.1.1.1.1.1.u z N p w L L w p | Q g 1.1.1.1.1.1.1.1.1.1.1.1.1.1.",
"1.1.1.1.1.1.1.1.1.1.1.1.1.1.u z I ' x * * x ' | Q h 1.1.1.1.1.1.1.1.1.1.1.1.1.1.",
"1.1.1.1.1.1.1.1.1.1.1.1.1.1.a z I [ | | | [ | | E g 1.1.1.1.1.1.1.1.1.1.1.1.1.1.",
"1.1.1.1.1.1.1.1.1.1.1.1.1.1.)   O O O O O O O O X ] 1.1.1.1.1.1.1.1.1.1.1.1.1.1.",
"1.1.<...o.1.1.,.#.$.1.1.1.%.@.@.@.@.@.Z Z @.@.@.@.@.@.@.@.@.@.#.,.1.1.o...<.1.1.",
"1.1.g e e m :.# , t X.O.O.v a p u y p u y u u a u u a a u a y y = :.m 2 e g 1.1.",
"1.,.# F F X { t I / | | | | | | | ' X.[ ' X.[ | | [ | | [ | | | g } O F F # ,.1.",
"1.:.% F F X m t N / | | | ' s y ! [ [ X.| | | Q p h ' | | | | | x m X F F $ >.1.",
"1.>.$ F F X 1 t I / | | | p e s @ ` [ ' | | / @ s r p | | | | | c 1 X F F & :.1.",
"1.;.$ F F X 9 t I ` | | | $ B F * Q X.' | | Q = F B = | | | | | x 9 X F F & :.1.",
"1.>.$ F F X - t I / | | | h = e % ' | ' ' X.[ # r = x | | | | | x - X F F $ :.1.",
"1.<.$ t t % T t I / X.' | [ U M ` X.| | | | | ` M E | | | | | | x R & t u # <.1.",
"1.1.) 6 5 } } 3 I / X.' | | | | ' ' | | | | | | | | | | | | | | g  . .5 6 ) 1.1.",
"1.1._ 8 7 ..>., , * 2 e e y y e r e e e e 2 e e y e e e r e y 2 2 ,...7 8 _ 1.1.",
"1.1._ 8 7 ..1.1.*.%.%.$.$.%.%.%.~ 2 b b b b e ~ %.%.%.%.%.%.%.*.<.1...7 8 _ 1.1.",
"1.1._ 8 7 ..1.1.1.1.1.1.1.1.1.1...y F F F F y ..1.1.1.1.1.1.1.1.1.1...7 8 _ 1.1.",
"1.1._ 8 7 ..1.1.1.1.1.1.1.1.1.1...y F F F F y ..1.1.1.1.1.1.1.1.1.1...7 8 _ 1.1.",
"1.1._ 8 7 ..1.1.1.1.1.1.1.1.1.1...y F F F F y ..1.1.1.1.1.1.1.1.1.1...7 8 _ 1.1.",
"1.-.2 X   k <.1.1.1.1.1.1.1.1.1...y F F F F y ..1.1.1.1.1.1.1.1.1.<.j     e -.1.",
"1.m ] 1.1.m ) 1.1.1.1.1.1.1.1.<.V # e e e e # Z <.1.1.1.1.1.1.1.1.) m 1.1.] k 1.",
"-., 1.1.1.:.& 1.#._ =.1.1.1.1.h 2 z S F E E E a v 1.1.1.1.=.] #.1.> :.1.1.1., :.",
",.& :.1.1.-.& ..$ < + -.1.1.<.O N W [ X.| | | | O <.1.1.=.O < $ o.> -.1.1.:.> ,.",
"1.) k 1.1.h } k 4 d < } 1.1.>.$ I W ' ' | | | | & ,.1.1.} < d 4 k } g 1.1.k ) 1.",
"1.1.j =.-.k 1.h 4 d < ] >.>.*.+ N U ` ` ` ` ` ` $ =.,.,.) < d 4 j 1.k -.=.j 1.1.",
"1.1.1.1.1.1.1.h 4 d < + > > > > + $ ; $ + > $ > > > > $ + < d 4 j 1.1.1.1.1.1.1.",
"1.1.1.1.1.1.1.h 4 d < u V V k T V V V V V V V V V V V V u < d 4 j 1.1.1.1.1.1.1.",
"1.1.1.1.1.1.1.h 4 d < u V V V V Z Z Z V Z Z Z Z Z Z V V u < d 4 h 1.1.1.1.1.1.1.",
"1.1.1.1.1.1.1.h 4 d < ] 1.1.1.1.T ]  ., , , , , $.1.1.1.] < d 4 j 1.1.1.1.1.1.1.",
"1.1.1.1.1.1.1.T < d ; @.1.1.1.1.<.<.1.,.,.,.,.,.1.1.1.1.@.; d < T 1.1.1.1.1.1.1.",
"1.1.1.1.1.1.1.>.u O Z 1.1.1.1.1.1.1.1.1.1.1.1.1.1.1.1.1.1.m O u ,.1.1.1.1.1.1.1.",
"1.1.1.1.1.1.1.1.1.1.1.1.1.1.1.1.1.1.1.1.1.1.1.1.1.1.1.1.1.1.1.1.1.1.1.1.1.1.1.1."
};
